<svg width="48" height="48" viewBox="0 0 48 48" fill="none" xmlns="http://www.w3.org/2000/svg">
<path fill-rule="evenodd" clip-rule="evenodd" d="M2.3999 21C2.3999 31.2725 10.7274 39.6 20.9999 39.6C24.7417 39.6 28.2254 38.4951 31.1425 36.5938L39.8187 45.27C40.1936 45.6449 40.8014 45.6449 41.1763 45.27L44.9098 41.5364C45.2848 41.1615 45.2848 40.5537 44.9099 40.1788L36.3044 31.5733C38.3825 28.5711 39.5999 24.9277 39.5999 21C39.5999 10.7275 31.2724 2.4 20.9999 2.4C10.7274 2.4 2.3999 10.7275 2.3999 21ZM11.3999 13.36C11.3999 12.8298 11.8297 12.4 12.3599 12.4H29.6399C30.1701 12.4 30.5999 12.8298 30.5999 13.36V17.92C30.5999 18.4502 30.1701 18.88 29.6399 18.88H24.2399V30.4C24.2399 30.9302 23.8101 31.36 23.2799 31.36H18.7199C18.1897 31.36 17.7599 30.9302 17.7599 30.4V18.88H12.3599C11.8297 18.88 11.3999 18.4502 11.3999 17.92V13.36Z" fill="#2ED291"/>
</svg>
